<svg width="50" height="50" viewBox="0 0 50 50" fill="none" xmlns="http://www.w3.org/2000/svg">
<g id="chart-mixed-up-circle-dollar 1" clip-path="url(#clip0_520_4955)">
<path id="Vector" d="M37.452 25C30.5479 25 24.952 30.5958 24.952 37.5C24.952 44.4042 30.5479 50 37.452 50C44.3562 50 49.952 44.4042 49.952 37.5C49.952 30.5958 44.3562 25 37.452 25ZM44.3291 41.5312C44.0104 43.7812 42.0208 45.4167 39.7479 45.4167H39.1645V46.2667C39.1645 47.1771 38.4291 47.9167 37.5187 47.9167H37.477C36.5687 47.9167 35.8333 47.175 35.8333 46.2667V45.4167H35.4166C33.9354 45.4167 32.6083 44.7396 31.7291 43.6812C30.8583 42.6312 31.5979 41.0438 32.9624 41.0438C33.4354 41.0438 34.0249 41.2667 34.3458 41.6146C34.6124 41.9042 34.9958 42.0854 35.4187 42.0854H39.7999C40.3791 42.0854 40.9083 41.6958 41.0208 41.1271C41.152 40.4646 40.7166 39.8458 40.0812 39.7167L34.2666 38.5521C31.9499 38.0875 30.3333 35.8833 30.6729 33.4708C30.9895 31.2208 32.9812 29.5833 35.2541 29.5833H35.8374V28.75C35.8374 27.8292 36.5833 27.0833 37.5041 27.0833C38.4249 27.0833 39.1708 27.8292 39.1708 28.75V29.5833H39.5874C41.0687 29.5833 42.3958 30.2583 43.2749 31.3187C44.1458 32.3687 43.4062 33.9562 42.0416 33.9562C41.5687 33.9562 40.9791 33.7333 40.6583 33.3854C40.3916 33.0958 40.0083 32.9146 39.5854 32.9146H35.2062C34.627 32.9146 34.0979 33.3021 33.9833 33.8687C33.8499 34.5312 34.2874 35.1542 34.9187 35.2812L40.7354 36.4458C43.052 36.9083 44.6708 39.1167 44.3291 41.5271V41.5312ZM49.9999 2.53333V12.7688C49.9999 14.3812 48.0499 15.1896 46.9083 14.05L43.6395 10.7812L37.9479 16.4729C34.8312 19.5896 29.7562 19.5917 26.6354 16.4729L21.027 10.8625C20.3458 10.1813 19.2374 10.1813 18.5541 10.8625L5.33536 24.0854C4.72494 24.6958 3.92494 25 3.12494 25C2.32494 25 1.52494 24.6958 0.914526 24.0854C-0.306307 22.8667 -0.306307 20.8854 0.914526 19.6667L14.1374 6.44375C17.2541 3.325 22.3312 3.325 25.4479 6.44375L31.0562 12.0521C31.7395 12.7333 32.8458 12.7333 33.5312 12.0521L39.2229 6.36042L35.9541 3.09167C34.8124 1.95 35.6208 0 37.2354 0H47.4729C48.8708 0 50.0062 1.13333 50.0062 2.53333H49.9999ZM8.33328 32.2917V46.875C8.33328 48.6 6.93536 50 5.20828 50C3.48119 50 2.08328 48.6 2.08328 46.875V32.2917C2.08328 30.5667 3.48119 29.1667 5.20828 29.1667C6.93536 29.1667 8.33328 30.5667 8.33328 32.2917ZM18.7499 23.9583V46.875C18.7499 48.6 17.352 50 15.6249 50C13.8979 50 12.4999 48.6 12.4999 46.875V23.9583C12.4999 22.2312 13.8979 20.8333 15.6249 20.8333C17.352 20.8333 18.7499 22.2312 18.7499 23.9583Z" fill="url(#paint0_linear_520_4955)"/>
</g>
<defs>
<linearGradient id="paint0_linear_520_4955" x1="-0.00109863" y1="25" x2="50.0062" y2="25" gradientUnits="userSpaceOnUse">
<stop stop-color="#173A6D"/>
<stop offset="1" stop-color="#2D70D3"/>
</linearGradient>
<clipPath id="clip0_520_4955">
<rect width="50" height="50" fill="white"/>
</clipPath>
</defs>
</svg>
