<svg width="50" height="50" viewBox="0 0 50 50" fill="none" xmlns="http://www.w3.org/2000/svg">
<g id="badget-check-alt 1" clip-path="url(#clip0_520_4935)">
<path id="Vector" d="M33.8165 18.0854L27.077 25.3271C25.929 26.4792 24.4707 27.0833 22.9165 27.0833C21.3624 27.0833 19.9061 26.4792 18.8082 25.3813L15.7332 22.3063C14.9186 21.4917 14.9186 20.175 15.7332 19.3604C16.5478 18.5458 17.8645 18.5458 18.679 19.3604L21.754 22.4354C22.3749 23.0563 23.4582 23.0563 24.077 22.4354L30.7665 15.2479C31.552 14.4042 32.8707 14.3604 33.7103 15.1417C34.552 15.925 34.5999 17.2438 33.8165 18.0854ZM49.8436 41.9396C49.3728 43.0708 48.3249 43.7729 47.102 43.7729H43.8478V47.0271C43.8478 48.8875 42.329 50 40.8582 50C40.0728 50 39.354 49.6979 38.7811 49.125L29.6853 40.0292C29.6853 40.0292 29.679 40.0167 29.6728 40.0104C29.3249 40.2896 28.9832 40.575 28.579 40.8C27.4915 41.4042 26.2707 41.7063 25.052 41.7063C23.8332 41.7063 22.6124 41.4042 21.5228 40.8C21.1124 40.5729 20.7624 40.2833 20.4082 39.9979C20.3999 40.0083 20.3957 40.0208 20.3874 40.0313L11.2915 49.1271C10.7207 49.7 10.002 50.0021 9.21446 50.0021C7.74571 50.0021 6.22696 48.8896 6.22696 47.0292V43.775H2.97279C1.74988 43.775 0.699878 43.075 0.231128 41.9459C-0.237622 40.8125 0.0102948 39.575 0.874878 38.7104L8.25196 31.3354C8.13529 30.4563 8.16238 29.5792 8.35821 28.7188C8.49363 28.125 8.20821 27.4854 7.64988 27.125C6.61029 26.4542 5.76863 25.5438 5.14571 24.4229C4.55196 23.35 4.23946 22.1208 4.24571 20.8625C4.23946 19.6229 4.54988 18.3917 5.14571 17.3188C5.76654 16.1958 6.61029 15.2854 7.64988 14.6167C8.20821 14.2563 8.49363 13.6167 8.35821 13.025C8.07904 11.7896 8.12071 10.525 8.48113 9.2646C9.16863 6.87293 11.079 4.96252 13.4707 4.27502C14.729 3.9146 15.9936 3.87293 17.227 4.1521C17.8249 4.28335 18.4603 4.00002 18.8207 3.44168C19.4895 2.40418 20.3999 1.56252 21.5228 0.9396C23.6978 -0.26665 26.402 -0.26665 28.579 0.9396C29.702 1.56252 30.6103 2.40418 31.279 3.44377C31.6395 4.0021 32.2853 4.2896 32.8728 4.1521C34.104 3.87085 35.3707 3.9146 36.6311 4.27502C39.0228 4.96252 40.9353 6.87293 41.6228 9.2646C41.9832 10.5271 42.0249 11.7938 41.7457 13.0271C41.6124 13.6188 41.8957 14.2583 42.454 14.6188C43.4936 15.2896 44.3374 16.1979 44.9582 17.3208C45.552 18.3938 45.8645 19.6229 45.8582 20.8813C45.8645 22.1208 45.554 23.3521 44.9582 24.425C44.3374 25.5458 43.4936 26.4563 42.4561 27.1271C41.8957 27.4875 41.6103 28.1271 41.7457 28.7208C41.9436 29.5896 41.9728 30.475 41.8499 31.3646L49.1999 38.7146C50.0645 39.5792 50.3103 40.8167 49.8436 41.9459V41.9396ZM16.8832 37.6417C15.7603 37.8417 14.6145 37.7896 13.4707 37.4646C12.1665 37.0917 11.029 36.3292 10.1311 35.3458L5.87071 39.6063H8.31238C9.46238 39.6063 10.3957 40.5396 10.3957 41.6896V44.1292L16.8853 37.6396L16.8832 37.6417ZM33.7957 33.5229C34.3353 33.6458 34.904 33.6229 35.4853 33.4583C36.4915 33.1708 37.329 32.3333 37.6186 31.3271C37.7832 30.7479 37.8061 30.1792 37.6832 29.6375C37.1624 27.3438 38.1728 24.9271 40.1978 23.6208C40.654 23.325 41.0311 22.9146 41.3165 22.4C41.5645 21.9521 41.6957 21.425 41.6936 20.8771C41.6957 20.3125 41.5645 19.7854 41.3165 19.3354C41.0311 18.8188 40.6561 18.4083 40.1978 18.1146C38.1728 16.8083 37.1645 14.3917 37.6832 12.1C37.8061 11.5583 37.7853 10.9896 37.6186 10.4083C37.3311 9.40418 36.4915 8.56668 35.4853 8.2771C34.9082 8.11043 34.3395 8.09168 33.7957 8.21252C31.5103 8.73752 29.0895 7.72502 27.7811 5.70002C27.4874 5.24377 27.077 4.86668 26.5624 4.58127C25.6457 4.07293 24.4603 4.07502 23.5457 4.58127C23.029 4.86877 22.6186 5.24377 22.3249 5.70002C21.0207 7.72293 18.6061 8.73752 16.3082 8.2146C15.7645 8.09168 15.1999 8.11252 14.6207 8.27918C13.6145 8.56877 12.7749 9.40418 12.4874 10.4104C12.3207 10.9896 12.2999 11.5583 12.4228 12.1021C12.9436 14.3917 11.9332 16.8104 9.90821 18.1167C9.45196 18.4104 9.07696 18.8208 8.79154 19.3375C8.54154 19.7875 8.41029 20.3146 8.41446 20.8604C8.41238 21.425 8.54363 21.9521 8.79154 22.4021C9.07904 22.9188 9.45404 23.3292 9.91238 23.625C11.9353 24.9292 12.9457 27.3479 12.4249 29.6396C12.302 30.1792 12.3249 30.75 12.4915 31.3313C12.7811 32.3354 13.6165 33.1729 14.6228 33.4604C15.1999 33.6271 15.7686 33.6479 16.3082 33.525C16.7103 33.4354 17.1165 33.3896 17.5186 33.3896C19.4145 33.3896 21.2499 34.3688 22.327 36.0375C22.6228 36.4938 23.0332 36.8688 23.5478 37.1563C24.4624 37.6646 25.6457 37.6646 26.5645 37.1563C27.079 36.8708 27.4895 36.4938 27.7832 36.0375C29.0915 34.0146 31.5145 33.0021 33.7999 33.5229H33.7957ZM44.2061 39.6063L39.9603 35.3604C39.0645 36.3375 37.9311 37.0917 36.6311 37.4625C35.4749 37.7917 34.3186 37.8417 33.1874 37.6354L39.6811 44.1292V41.6896C39.6811 40.5396 40.6145 39.6063 41.7645 39.6063H44.2061Z" fill="url(#paint0_linear_520_4935)"/>
</g>
<defs>
<linearGradient id="paint0_linear_520_4935" x1="-0.00244141" y1="25.0185" x2="50.0763" y2="25.0185" gradientUnits="userSpaceOnUse">
<stop stop-color="#173A6D"/>
<stop offset="1" stop-color="#2D70D3"/>
</linearGradient>
<clipPath id="clip0_520_4935">
<rect width="50" height="50" fill="white"/>
</clipPath>
</defs>
</svg>
