<svg width="50" height="50" viewBox="0 0 50 50" fill="none" xmlns="http://www.w3.org/2000/svg">
<g id="hr-person 1" clip-path="url(#clip0_520_4946)">
<path id="Vector" d="M19.7917 5.20833C19.7917 2.33125 22.1229 0 25 0C27.8771 0 30.2083 2.33125 30.2083 5.20833C30.2083 8.08542 27.8771 10.4167 25 10.4167C22.1229 10.4167 19.7917 8.08542 19.7917 5.20833ZM43.75 6.25C40.3042 6.25 37.5 9.05417 37.5 12.5V23.3C36.9458 23.1042 36.3708 22.9583 35.7667 22.925C34.1146 22.8375 32.5021 23.3958 31.2396 24.5271L24.9708 30.2958C24.7979 30.1208 24.6375 29.9375 24.4562 29.7687L18.7396 24.5083C17.4958 23.3958 15.8771 22.8396 14.2333 22.925C13.6292 22.9583 13.0542 23.1042 12.5 23.3V12.5C12.5 9.05417 9.69583 6.25 6.25 6.25C2.80417 6.25 0 9.05417 0 12.5V33.5437C0 37.9958 1.73333 42.1812 4.88125 45.3292L8.94375 49.3917C9.35 49.7979 9.88333 50.0021 10.4167 50.0021C10.95 50.0021 11.4833 49.7979 11.8896 49.3917C12.7042 48.5771 12.7042 47.2583 11.8896 46.4458L7.82708 42.3833C5.46667 40.0229 4.16667 36.8833 4.16667 33.5437V12.5C4.16667 11.3521 5.1 10.4167 6.25 10.4167C7.4 10.4167 8.33333 11.3521 8.33333 12.5C8.33333 12.5 8.32292 29.325 8.33333 29.4083C8.39583 30.7729 8.92708 32.1354 9.8875 33.2771L15.3375 38.9458C16.1333 39.775 17.4521 39.8021 18.2833 39.0021C19.1104 38.2042 19.1375 36.8854 18.3396 36.0562L12.9833 30.4937C12.325 29.7083 12.3438 28.5396 13.0292 27.775C13.3979 27.3625 13.9062 27.1187 14.4604 27.0875C15.0083 27.05 15.5458 27.2437 15.9396 27.5958L21.6333 32.8375C23.7708 34.8042 24.9979 37.6 24.9979 40.5042V47.9187C24.9979 49.0687 25.9292 50.0021 27.0812 50.0021C28.2333 50.0021 29.1646 49.0687 29.1646 47.9187V40.5042C29.1646 38.1042 28.5521 35.7646 27.4479 33.6792L34.0375 27.6146C34.45 27.2437 34.9854 27.05 35.5375 27.0875C36.0917 27.1187 36.6 27.3625 36.9688 27.775C37.3021 28.1458 37.8875 29.6083 37.1083 30.3875L31.8312 35.875C31.0333 36.7042 31.0604 38.0229 31.8875 38.8208C32.2917 39.2104 32.8104 39.4021 33.3312 39.4021C33.8792 39.4021 34.4229 39.1875 34.8333 38.7625L40.2042 33.1687C41.1417 32.0521 41.6333 30.6792 41.6646 29.3C41.6688 29.2521 41.6646 12.4979 41.6646 12.4979C41.6646 11.35 42.5979 10.4146 43.7479 10.4146C44.8979 10.4146 45.8312 11.35 45.8312 12.4979V33.5417C45.8312 36.8812 44.5312 40.0187 42.1708 42.3812L38.1083 46.4437C37.2937 47.2562 37.2937 48.575 38.1083 49.3896C38.5146 49.7958 39.0479 50 39.5812 50C40.1146 50 40.6479 49.7958 41.0542 49.3896L45.1167 45.3271C48.2646 42.1792 49.9979 37.9937 49.9979 33.5417V12.5C49.9979 9.05417 47.1958 6.25 43.75 6.25ZM21.5187 21.4042L23.3187 23.0604C24.2687 23.9354 25.7312 23.9354 26.6812 23.0604L28.4187 21.4625C29.8125 20.2146 31.5083 19.4062 33.2896 19.025C33.3 19.0083 33.3062 19 33.3167 18.9833C32.4562 15.2708 29.0604 12.5 25.0021 12.5C20.9438 12.5 17.55 15.2687 16.6875 18.9792C16.6979 18.9958 16.7021 19.0042 16.7125 19.0187C18.4438 19.3792 20.1104 20.1417 21.5208 21.4021L21.5187 21.4042Z" fill="url(#paint0_linear_520_4946)"/>
</g>
<defs>
<linearGradient id="paint0_linear_520_4946" x1="0" y1="25.001" x2="49.9979" y2="25.001" gradientUnits="userSpaceOnUse">
<stop stop-color="#173A6D"/>
<stop offset="1" stop-color="#2D70D3"/>
</linearGradient>
<clipPath id="clip0_520_4946">
<rect width="50" height="50" fill="white"/>
</clipPath>
</defs>
</svg>
