<svg width="40" height="48" viewBox="0 0 40 48" fill="none" xmlns="http://www.w3.org/2000/svg">
<g id="icon-pdf.svg" clip-path="url(#clip0_109_458)">
<g id="Clip path group">
<mask id="mask0_109_458" style="mask-type:luminance" maskUnits="userSpaceOnUse" x="0" y="0" width="40" height="48">
<g id="a">
<path id="Vector" d="M0.00390625 0.00500488H39.9936V47.995H0.00390625V0.00500488Z" fill="white"/>
</g>
</mask>
<g mask="url(#mask0_109_458)">
<g id="Group">
<path id="Vector_2" opacity="0.3" d="M27.9311 9.85295C26.8379 9.85189 25.7898 9.41715 25.0168 8.64414C24.2437 7.87113 23.809 6.82301 23.8079 5.72981V0.00500488H5.38479C3.95769 0.00500488 2.58904 0.571917 1.57993 1.58103C0.570819 2.59014 0.00390625 3.95879 0.00390625 5.38588L0.00390625 37.8211C0.00602548 39.2468 0.573873 40.6134 1.58275 41.6208C2.59164 42.6282 3.95907 43.194 5.38479 43.194H27.5002C28.9261 43.1945 30.294 42.6289 31.3031 41.6215C32.3123 40.614 32.8802 39.2471 32.8821 37.8211V9.85295H27.9311Z" fill="#D61616"/>
<path id="Vector_3" d="M32.8824 9.85295H27.9314C26.8382 9.85189 25.7901 9.41715 25.0171 8.64414C24.2441 7.87113 23.8093 6.82301 23.8083 5.72981V0.00500488L32.8824 9.85295ZM26.1178 30.1657H5.47508C5.37348 30.171 5.27188 30.1555 5.17646 30.1202C5.08103 30.085 4.99378 30.0307 4.92001 29.9606C4.84625 29.8906 4.78751 29.8062 4.74736 29.7127C4.70722 29.6193 4.68652 29.5186 4.68652 29.4169C4.68652 29.3151 4.70722 29.2145 4.74736 29.121C4.78751 29.0275 4.84625 28.9432 4.92001 28.8731C4.99378 28.8031 5.08103 28.7488 5.17646 28.7135C5.27188 28.6783 5.37348 28.6628 5.47508 28.668H26.1178C26.3164 28.668 26.5069 28.7469 26.6473 28.8874C26.7877 29.0278 26.8666 29.2183 26.8666 29.4169C26.8666 29.6155 26.7877 29.806 26.6473 29.9464C26.5069 30.0868 26.3164 30.1657 26.1178 30.1657ZM26.1178 21.7205H5.47508C5.37437 21.7242 5.27395 21.7075 5.17983 21.6715C5.0857 21.6355 4.9998 21.5809 4.92725 21.5109C4.8547 21.441 4.797 21.3571 4.75758 21.2644C4.71817 21.1717 4.69786 21.0719 4.69786 20.9711C4.69786 20.8704 4.71817 20.7706 4.75758 20.6779C4.797 20.5851 4.8547 20.5013 4.92725 20.4313C4.9998 20.3614 5.0857 20.3068 5.17983 20.2708C5.27395 20.2348 5.37437 20.2181 5.47508 20.2218H26.1178C26.3164 20.2218 26.5069 20.3007 26.6473 20.4411C26.7877 20.5816 26.8666 20.772 26.8666 20.9706C26.8666 21.1692 26.7877 21.3597 26.6473 21.5001C26.5069 21.6406 26.3164 21.7205 26.1178 21.7205ZM26.1178 25.9426H5.47508C5.37348 25.9479 5.27188 25.9324 5.17646 25.8971C5.08103 25.8619 4.99378 25.8075 4.92001 25.7375C4.84625 25.6674 4.78751 25.5831 4.74736 25.4896C4.70722 25.3962 4.68652 25.2955 4.68652 25.1938C4.68652 25.092 4.70722 24.9914 4.74736 24.8979C4.78751 24.8044 4.84625 24.7201 4.92001 24.65C4.99378 24.58 5.08103 24.5257 5.17646 24.4904C5.27188 24.4551 5.37348 24.4397 5.47508 24.4449H26.1178C26.3164 24.4449 26.5069 24.5238 26.6473 24.6642C26.7877 24.8047 26.8666 24.9952 26.8666 25.1938C26.8666 25.3924 26.7877 25.5828 26.6473 25.7233C26.5069 25.8637 26.3164 25.9426 26.1178 25.9426ZM17.9755 17.4964H5.47508C5.28316 17.4864 5.10238 17.4032 4.97005 17.2639C4.83772 17.1245 4.76394 16.9397 4.76394 16.7475C4.76394 16.5553 4.83772 16.3705 4.97005 16.2312C5.10238 16.0918 5.28316 16.0086 5.47508 15.9987H17.9755C18.1674 16.0086 18.3482 16.0918 18.4805 16.2312C18.6128 16.3705 18.6866 16.5553 18.6866 16.7475C18.6866 16.9397 18.6128 17.1245 18.4805 17.2639C18.3482 17.4032 18.1674 17.4864 17.9755 17.4964ZM17.9755 13.2732H5.47508C5.28316 13.2633 5.10238 13.1801 4.97005 13.0407C4.83772 12.9014 4.76394 12.7166 4.76394 12.5244C4.76394 12.3322 4.83772 12.1474 4.97005 12.008C5.10238 11.8687 5.28316 11.7855 5.47508 11.7756H17.9755C18.1233 11.7763 18.2676 11.8207 18.3903 11.9032C18.513 11.9857 18.6085 12.1026 18.6649 12.2393C18.7213 12.3759 18.7361 12.5262 18.7074 12.6712C18.6786 12.8162 18.6076 12.9495 18.5034 13.0543C18.3634 13.1945 18.1736 13.2735 17.9755 13.2742V13.2732ZM36.7825 34.1179H11.7818C11.36 34.118 10.9425 34.2012 10.5529 34.3627C10.1633 34.5242 9.80941 34.7609 9.5113 35.0592C9.21319 35.3575 8.97676 35.7116 8.8155 36.1012C8.65423 36.4909 8.5713 36.9085 8.57143 37.3302V44.7837C8.57143 45.6352 8.90963 46.4519 9.51165 47.0541C10.1137 47.6563 10.9302 47.9947 11.7818 47.995H36.7825C37.2043 47.995 37.6219 47.9119 38.0115 47.7506C38.4011 47.5892 38.7551 47.3526 39.0533 47.0544C39.3515 46.7562 39.5881 46.4022 39.7494 46.0126C39.9108 45.623 39.9939 45.2054 39.9939 44.7837V37.3302C39.9939 36.9085 39.9108 36.4909 39.7494 36.1013C39.5881 35.7117 39.3515 35.3577 39.0533 35.0595C38.7551 34.7613 38.4011 34.5247 38.0115 34.3633C37.6219 34.202 37.2043 34.1179 36.7825 34.1179Z" fill="#D61616"/>
<path id="Vector_4" d="M16.7713 42.6702V44.1239H15.2676V42.6702H16.7713ZM18.9828 42.0143V44.1239H17.5301V38.1111H19.8856C20.5995 38.1111 21.1454 38.2891 21.5193 38.644C21.7085 38.8297 21.8562 39.0534 21.9527 39.3004C22.0492 39.5473 22.0923 39.8119 22.0792 40.0767C22.0862 40.4266 22.0002 40.7716 21.8292 41.0765C21.6546 41.3747 21.3959 41.6147 21.0854 41.7663C20.7108 41.9434 20.2997 42.029 19.8856 42.0163L18.9828 42.0143ZM20.5995 40.0767C20.5995 39.5438 20.3075 39.2769 19.7236 39.2769H18.9838V40.8425H19.7236C20.3075 40.8485 20.5995 40.5926 20.5995 40.0767ZM27.823 42.6742C27.573 43.1291 27.1941 43.5 26.7352 43.7419C26.2185 44.0064 25.6439 44.1377 25.0635 44.1239H22.794V38.1111H25.0635C25.6443 38.0965 26.2197 38.2249 26.7392 38.485C27.1971 38.7217 27.5744 39.0892 27.823 39.5408C28.0829 40.0207 28.2139 40.5596 28.2029 41.1045C28.2129 41.6524 28.0829 42.1923 27.823 42.6742ZM26.2593 42.3722C26.4218 42.2054 26.5478 42.0064 26.629 41.7882C26.7103 41.5699 26.7451 41.337 26.7312 41.1045C26.7452 40.8723 26.7104 40.6397 26.6291 40.4217C26.5479 40.2037 26.4219 40.0051 26.2593 39.8387C25.8956 39.5196 25.4205 39.3572 24.9376 39.3868H24.2477V42.8221H24.9376C25.4205 42.8521 25.8944 42.6902 26.2593 42.3722ZM32.9469 38.1111V39.2699H30.4824V40.5866H32.386V41.6924H30.4824V44.1239H29.0267V38.1111H32.9469Z" fill="white"/>
<path id="Vector_5" d="M25.7516 11.7755H22.2164C21.6005 11.7755 21.1006 12.2754 21.1006 12.8913V16.4265C21.1006 17.0434 21.6005 17.5423 22.2164 17.5423H25.7516C26.3675 17.5423 26.8674 17.0424 26.8674 16.4265V12.8923C26.8674 12.2764 26.3675 11.7765 25.7516 11.7765V11.7755Z" fill="#D61616"/>
</g>
</g>
</g>
</g>
<defs>
<clipPath id="clip0_109_458">
<rect width="39.9917" height="47.99" fill="white" transform="translate(0.00390625 0.00500488)"/>
</clipPath>
</defs>
</svg>
