<svg width="34" height="34" viewBox="0 0 34 34" fill="none" xmlns="http://www.w3.org/2000/svg">
<path d="M0 28C0 12.536 12.536 0 28 0H29C31.7614 0 34 2.23858 34 5V29C34 31.7614 31.7614 34 29 34H5C2.23858 34 0 31.7614 0 29V28Z" fill="#1B3A6F"/>
<g clip-path="url(#clip0_335_2769)">
<path d="M9.79167 26.3519C10.3347 26.2173 10.862 26.0709 11.375 25.9149V28.5005H9.79167V26.3519ZM21.6667 20.1753V28.5005H23.25V18.5809C22.7671 19.1145 22.243 19.6481 21.6667 20.1753ZM13.75 28.5005H15.3333V24.3996C14.8259 24.6395 14.2955 24.8659 13.75 25.0836V28.5005ZM17.7083 28.5005H19.2917V22.0927C18.7921 22.4474 18.2617 22.791 17.7083 23.1251V28.5005ZM26.5315 14.5379L28.0063 13.9623L26.6328 10.441C26.4879 10.0705 26.2077 9.77836 25.8435 9.61923C25.4785 9.45932 25.0724 9.4514 24.7043 9.59627L21.1837 10.969L21.7593 12.4439L24.2681 11.4654C23.0299 14.3019 18.7739 20.868 9 23.2881V24.9206C19.5022 22.4664 24.1066 15.643 25.6313 12.2301L26.5315 14.5379ZM25.625 28.5005H27.2083V15.8338H25.625V28.5005Z" fill="white"/>
</g>
<defs>
<clipPath id="clip0_335_2769">
<rect width="19" height="19" fill="white" transform="translate(9 9.5)"/>
</clipPath>
</defs>
</svg>
